<svg xmlns="http://www.w3.org/2000/svg" viewBox="0 0 32 32"><defs><style>.cls-1{fill:#fff;fill-rule:evenodd;}</style></defs><title>github-icon-white-small</title><g id="Layer_2" data-name="Layer 2"><g id="Layer_1-2" data-name="Layer 1"><path class="cls-1" d="M15.22,0A16.31,16.31,0,0,0,0,15.27,16.41,16.41,0,0,0,10.94,32c.8.15,1.09-.36,1.09-.79s0-1.42,0-2.79c-4.45,1-5.39-2.2-5.39-2.2a4.32,4.32,0,0,0-1.78-2.4c-1.45-1,.11-1,.11-1a3.37,3.37,0,0,1,2.45,1.69,3.36,3.36,0,0,0,4.66,1.36,3.54,3.54,0,0,1,1-2.19c-3.55-.41-7.29-1.82-7.29-8.11a6.43,6.43,0,0,1,1.65-4.4A6,6,0,0,1,7.6,6.8S8.94,6.36,12,8.49a14.8,14.8,0,0,1,8,0c3.05-2.12,4.4-1.68,4.4-1.68a6,6,0,0,1,.16,4.34,6.42,6.42,0,0,1,1.64,4.4c0,6.3-3.74,7.69-7.31,8.1a4,4,0,0,1,1.09,3c0,2.19,0,4,0,4.5s.29.95,1.1.79A16.38,16.38,0,0,0,32,16.41,16.18,16.18,0,0,0,15.22,0Z"/></g></g></svg>